
        <svg xmlns="http://www.w3.org/2000/svg" xmlns:xlink="http://www.w3.org/1999/xlink" version="1.1" width="3166.6666666666665" 
        height="1048.7390355427679" viewBox="0 0 3166.6666666666665 1048.7390355427679">
			
			<g transform="scale(8.333333333333334) translate(10, 10)">
				<defs id="SvgjsDefs2335"></defs><g id="SvgjsG2336" featureKey="PG4fjM-0" transform="matrix(1.326717291760591,0,0,1.326717291760591,-8.93215018044578,-7.182310867983979)" fill="#649dad"><g xmlns="http://www.w3.org/2000/svg"><path d="M47.49,15.479c18.524,0,33.596,15.07,33.596,33.594c0,4.146-0.762,8.115-2.143,11.787l0.896,4.265   c2.412-4.84,3.775-10.289,3.775-16.052c0-19.918-16.205-36.122-36.124-36.122c-15.062,0-27.994,9.27-33.406,22.401l2.414,0.769   C21.579,24.009,33.556,15.479,47.49,15.479"></path><path d="M47.49,82.666c-1.04,0-2.068-0.056-3.086-0.148l-4.688,1.825c2.506,0.552,5.104,0.853,7.773,0.853   c5.54,0,10.791-1.257,15.487-3.495l-3.424-1.283C55.807,81.864,51.742,82.666,47.49,82.666"></path><rect x="13.26" y="73.248" transform="matrix(-0.9312 -0.3644 0.3644 -0.9312 13.8243 150.3567)" width="15.677" height="1.253"></rect><rect x="57.473" y="72.972" transform="matrix(0.9365 0.3507 -0.3507 0.9365 29.9852 -18.3802)" width="16.532" height="1.249"></rect><rect x="34.877" y="73.166" transform="matrix(-0.933 0.3599 -0.3599 -0.933 109.0942 127.2707)" width="15.642" height="1.251"></rect><path d="M59.4,42.228c-0.348,0.729-0.744,1.446-1.169,2.157l11.701,3.481l6.794,32.412l-21.021-7.874l-1.472-21.723   c-0.113,0.197-0.229,0.394-0.35,0.594c-0.2,0.334-0.402,0.673-0.588,1.012c-0.414,0.707-0.814,1.398-1.218,2.095l1.224,18.07   l-20.345,7.919l2.278-32.542l3.643-1.121c-0.436-0.699-0.87-1.404-1.284-2.117l-3.486,1.074l-18.482-5.882L8.24,74.002   l23.557,9.216l0.13-0.333l0.155,0.401l22.477-8.748l25.415,9.519l-7.984-38.085L59.4,42.228z M30.566,80.16L11.02,72.511   l6.395-29.641l15.418,4.906L30.566,80.16z"></path><path d="M58.769,35.967c0-0.392-0.487-1.769-0.514-1.853c-0.113-0.421-0.341-0.872-0.511-1.266c-2.021-4.858-6.439-6.6-10.008-6.6   c-4.775,0-10.035,3.202-10.738,9.804v1.347c0,0.057,0.02,0.562,0.047,0.816c0.394,3.144,2.876,6.488,4.73,9.634   c1.994,3.37,4.062,6.686,6.114,10c1.266-2.163,2.525-4.354,3.76-6.461c0.338-0.619,0.729-1.235,1.064-1.824   c0.224-0.396,0.655-0.787,0.851-1.152c1.994-3.652,5.204-7.332,5.204-10.956V35.967z M47.858,41.005   c-2.303,0-4.169-1.866-4.169-4.169c0-2.303,1.866-4.171,4.169-4.171s4.17,1.868,4.17,4.171   C52.028,39.139,50.161,41.005,47.858,41.005"></path></g></g><g id="SvgjsG2337" featureKey="jxYttZ-0" transform="matrix(2.2703818011937287,0,0,2.2703818011937287,135.45923802151614,33.64809099403136)" fill="#649dad"><path d="M15.48 5 l-7.38 6.2 l7.38 8.8 l-3.1 0 l-5.98 -7.38 l-2.18 1.82 l0 5.56 l-2.22 0 l0 -15 l2.22 0 l0 6.84 l8 -6.84 l3.26 0 z M17.54 15.82 l0 -5.7 l2.06 0 l0 5.5 c0 2 0.62 2.88 2.32 2.88 c1.92 0 2.7 -1.34 2.7 -3.08 l0 -5.3 l2.06 0 l0 9.88 l-2.06 0 l0 -1.6 c-0.28 0.88 -1.52 1.68 -2.7 1.76 c-2.68 0.2 -4.38 -1.1 -4.38 -4.34 z M29.080000000000002 15.08 c0 -2.94 2.1 -5.14 4.94 -5.14 c0.98 0 2.18 0.42 2.84 0.96 l0 -5.9 l2.08 0 l0 15 l-2.08 0 l0 -0.74 c-0.78 0.58 -1.86 0.94 -2.84 0.94 c-2.84 0 -4.94 -2.18 -4.94 -5.12 z M31.16 15.08 c0 2 1.38 3.44 3.06 3.44 c1.12 0 2.12 -0.52 2.64 -1.58 c0.28 -0.54 0.44 -1.18 0.44 -1.86 s-0.16 -1.32 -0.44 -1.88 c-0.52 -1.06 -1.52 -1.56 -2.64 -1.56 c-1.68 0 -3.06 1.42 -3.06 3.44 z M45.96 9.92 c2.84 0 3.98 1.72 3.98 3.18 l0 6.9 l-2.06 0 l0 -1.08 c-0.72 0.98 -2 1.26 -2.8 1.26 c-2.26 0 -3.74 -1.32 -3.74 -3.08 c0 -2.46 1.84 -3.34 3.74 -3.34 l2.8 0 l0 -0.66 c0 -0.62 -0.24 -1.48 -1.92 -1.48 c-0.94 0 -1.8 0.5 -2.36 1.28 l-1.42 -1.28 c0.94 -1.04 2.28 -1.7 3.78 -1.7 z M47.879999999999995 16.92 l0 -1.48 l-2.52 0 c-1.22 0 -2.08 0.62 -1.94 1.74 c0.12 0.94 0.88 1.32 1.94 1.32 c1.9 0 2.52 -0.9 2.52 -1.58 z M64.14 10.52 c0 3.04 -2.36 5.5 -5.28 5.52 l-3.6 0 l0 3.96 l-2.24 0 l0 -15 l5.84 0 c2.92 0.02 5.28 2.48 5.28 5.52 z M58.82 14.2 c1.72 0 3.1 -1.66 3.1 -3.68 s-1.38 -3.68 -3.1 -3.68 l-3.56 0 l0 7.36 l3.56 0 z M71.28 11.64 c-1.7 0 -3.08 1.42 -3.08 3.44 c0 2 1.38 3.44 3.08 3.44 s3.08 -1.44 3.08 -3.44 c0 -2.02 -1.38 -3.44 -3.08 -3.44 z M71.28 9.94 c2.84 0 5.14 2.2 5.14 5.14 s-2.3 5.12 -5.14 5.12 s-5.14 -2.18 -5.14 -5.12 s2.3 -5.14 5.14 -5.14 z M87.2 10.12 c0 0 -2.5 5.92 -4.16 9.88 c-1.4 3.32 -2.5 5.32 -4.36 5.32 c-0.58 0 -1.32 -0.28 -1.86 -0.6 l0.62 -1.8 c0.16 0.14 0.52 0.34 0.76 0.4 c1.54 0.44 2.5 -2.78 3.16 -4.36 l-3.74 -8.84 l2.08 0 l2.72 6.48 l2.7 -6.48 l2.08 0 z M92.6 18.36 c0.64 0.26 1.14 0.08 1.44 -0.06 l0 1.6 c-0.26 0.16 -0.64 0.3 -1.18 0.3 c-1.18 0 -2.22 -0.38 -2.86 -1.42 c-0.6 -1 -0.6 -1.54 -0.6 -3.1 l0 -3.88 l-1.2 0 l0 -1.68 l1.2 0 l0 -3.12 l2.06 0 l0 3.12 l2.58 0 l0 1.68 l-2.58 0 l0 3.88 c0 1.64 0.16 2.24 1.14 2.68 z M98.8 10.12 l0 9.88 l-2.06 0 l0 -9.88 l2.06 0 z M98.89999999999999 6.5 c0 0.64 -0.5 1.14 -1.14 1.14 c-0.62 0 -1.12 -0.5 -1.12 -1.14 c0 -0.62 0.5 -1.12 1.12 -1.12 c0.64 0 1.14 0.5 1.14 1.12 z"></path></g>
			</g>
		</svg>
	